# AST/ASF file generated using VICON BodyLanguage
# -----------------------------------------------
:version 1.10
:name VICON
:units
  mass 1.0
  length 0.45
  angle deg
:documentation
   .ast/.asf automatically generated from VICON data using
   VICON BodyBuilder and BodyLanguage model FoxedUp or BRILLIANT.MOD
:root
   order TX TY TZ RX RY RZ
   axis XYZ
   position 0 0 0  
   orientation 0 0 0 
:bonedata
  begin
     id 1 
     name lhipjoint
     direction 0.646657 -0.683706 0.338203 
     length 2.4948 
     axis 0 0 0  XYZ
  end
  begin
     id 2 
     name lfemur
     direction 0.34202 -0.939693 0  
     length 6.79491  
     axis 0 0 20  XYZ
    dof rx ry rz
    limits (-160.0 20.0)
           (-70.0 70.0)
           (-60.0 70.0)
  end
  begin
     id 3 
     name ltibia
     direction 0.34202 -0.939693 0   
     length 7.56807   
     axis 0 0 20   XYZ
    dof rx
    limits (-10.0 170.0)
  end
  begin
     id 4 
     name lfoot
     direction 0.0679796 -0.186772 0.980048   
     length 2.53018   
     axis -90 7.62852e-016 20   XYZ
    dof rx rz
    limits (-45.0 90.0)
           (-70.0 20.0)
  end
  begin
     id 5 
     name ltoes
     direction 1.53625e-011 -4.21881e-011 1   
     length 1.26912   
     axis -90 7.62852e-016 20   XYZ
    dof rx
    limits (-90.0 20.0)
  end
  begin
     id 6 
     name rhipjoint
     direction -0.618868 -0.704065 0.348274   
     length 2.42265  
     axis 0 0 0  XYZ 
  end
  begin
     id 7 
     name rfemur
     direction -0.34202 -0.939693 0   
     length 6.73814   
     axis 0 0 -20   XYZ
    dof rx ry rz
    limits (-160.0 20.0)
           (-70.0 70.0)
           (-70.0 60.0)
  end
  begin
     id 8 
     name rtibia
     direction -0.34202 -0.939693 0   
     length 7.66799   
     axis 0 0 -20   XYZ
    dof rx
    limits (-10.0 170.0)
 end
 begin
     id 9 
     name rfoot
     direction -0.0727352 -0.199838 0.977125   
     length 2.57224  
     axis -90 -7.62852e-016 -20   XYZ
    dof rx rz
    limits (-45.0 90.0)
           (-20.0 70.0)
  end
  begin
     id 10 
     name rtoes
     direction -1.53501e-011 -4.21858e-011 1   
     length 1.28858   
     axis -90 -7.62852e-016 -20   XYZ
    dof rx
    limits (-90.0 20.0)
  end
  begin
     id 11 
     name lowerback
     direction -0.0172471 0.995767 -0.0902851   
     length 2.20206   
     axis 0 0 0   XYZ
    dof rx ry rz
    limits (-20.0 45.0)
           (-30.0 30.0)
           (-30.0 30.0)
  end
  begin
     id 12 
     name upperback
     direction -0.000110737 0.999714 0.0239043   
     length 2.19523   
     axis 0 0 0   XYZ
    dof rx ry rz
    limits (-20.0 45.0)
           (-30.0 30.0)
           (-30.0 30.0)
  end
  begin
     id 13 
     name thorax
     direction 0.00704869 0.997783 0.0661741   
     length 2.21977   
     axis 0 0 0   XYZ
    dof rx ry rz
    limits (-20.0 45.0)
           (-30.0 30.0)
           (-30.0 30.0)
  end
  begin
     id 14 
     name lowerneck
     direction -0.00407501 0.995527 0.0943846   
     length 1.83142   
     axis 0 0 0   XYZ
    dof rx ry rz
    limits (-20.0 45.0)
           (-30.0 30.0)
           (-30.0 30.0)
  end
  begin
     id 15 
     name upperneck
     direction 0.0640586 0.986486 -0.150807   
     length 1.84616   
     axis 0 0 0   XYZ
    dof rx ry rz
    limits (-20.0 45.0)
           (-30.0 30.0)
           (-30.0 30.0)
  end
  begin
     id 16
     name head
     direction 0.0188017 0.99791 -0.0618239  
     length 1.85932  
     axis 0 0 0   XYZ
    dof rx ry rz
    limits (-20.0 45.0)
           (-30.0 30.0)
           (-30.0 30.0)
  end
  begin
     id 17 
     name lclavicle
     direction 0.976074 0.206905 0.066852  
     length 3.81043  
     axis 0 0 0   XYZ
    dof ry rz
    limits (-20.0 10.0)
           (0.0 20.0)
  end
  begin
     id 18 
     name lhumerus
     direction 1 -4.48971e-011 1.86916e-027   
     length 5.37587   
     axis 180 -30 -90   XYZ
    dof rx ry rz
    limits (-60.0 90.0)
           (-90.0 90.0)
           (-90.0 90.0)
  end
  begin
     id 19
     name lradius
     direction 1 -4.48968e-011 1.69187e-027   
     length 3.35977   
     axis 180 -30 -90   XYZ
    dof rx
    limits (-10.0 170.0)
  end
  begin
     id 20
     name lwrist
     direction 1 -4.48968e-011 5.8978e-027   
     length 1.67988   
     axis -3.27506e-015 90 90   XYZ
    dof ry
    limits (-180.0 0.0)
 end
  begin
     id 21 
     name lhand
     direction 1 -4.49028e-011 1.18071e-026   
     length 0.561859   
     axis -7.52654e-015 90 90   XYZ
    dof rx rz
    limits (-90.0 90.0)
           (-45.0 45.0)
  end
  begin
     id 22 
     name lfingers
     direction 1 -4.48927e-011 2.35758e-026   
     length 0.452985   
     axis -1.50534e-014 90 90   XYZ
    dof rx
    limits (0.0 90.0)
  end
  begin
     id 23
     name lthumb
     direction 0.707107 -6.34898e-011 0.707107   
     length 0.650399   
     axis -90 45 5.69224e-014   XYZ
    dof rx rz
    limits (-45.0 45.0)
           (-45.0 45.0)
  end
  begin
     id 24 
     name rclavicle
     direction -0.988403 0.151789 0.00439714   
     length 3.6942  
     axis 0 0 0   XYZ 
    dof ry rz
    limits (-10.0 20.0)
           (-20.0 0.0)
  end
  begin
     id 25 
     name rhumerus
     direction -1 -4.48978e-011 1.62495e-027  
     length 5.22819   
     axis 180 30 90   XYZ
    dof rx ry rz
    limits (-90.0 60.0)
           (-90.0 90.0)
           (-90.0 90.0)
  end
  begin
     id 26 
     name rradius
     direction -1 -4.48961e-011 3.47796e-027   
     length 3.40764   
     axis 180 30 90   XYZ
    dof rx
    limits (-10.0 170.0)
  end
  begin
     id 27 
     name rwrist
     direction -1 -4.48949e-011 5.89602e-027   
     length 1.70382   
     axis -3.27506e-015 -90 -90   XYZ
    dof ry
    limits (-180.0 0.0)
  end
  begin
     id 28
     name rhand
     direction -1 -4.48977e-011 1.17973e-026   
     length 0.583255   
     axis -7.52654e-015 -90 -90   XYZ
    dof rx rz
    limits (-90.0 90.0)
           (-45.0 45.0)
  end
  begin
     id 29
     name rfingers
     direction -1 -4.49099e-011 2.36408e-026   
     length 0.470235   
     axis -1.50534e-014 -90 -90   XYZ
    dof rx
    limits (0.0 90.0)
  end
  begin
     id 30
     name rthumb
     direction -0.707107 -6.35011e-011 0.707107   
     length 0.675167   
     axis -90 -45 -5.69224e-014   XYZ
    dof rx rz
    limits (-45.0 45.0)
           (-45.0 45.0)
  end
:hierarchy
  begin
    root lhipjoint rhipjoint lowerback
    lhipjoint lfemur
    lfemur ltibia
    ltibia lfoot
    lfoot ltoes
    rhipjoint rfemur
    rfemur rtibia
    rtibia rfoot
    rfoot rtoes
    lowerback upperback
    upperback thorax
    thorax lowerneck lclavicle rclavicle
    lowerneck upperneck
    upperneck head
    lclavicle lhumerus
    lhumerus lradius
    lradius lwrist
    lwrist lhand lthumb
    lhand lfingers
    rclavicle rhumerus
    rhumerus rradius
    rradius rwrist
    rwrist rhand rthumb
    rhand rfingers
  end

#!OML:ASF G:\JayActor3\Patient Classification 1\Patient 1\Session 2\male.ASF
:FULLY-SPECIFIED
:DEGREES
1029
root -10.679 16.8224 -7.57692 -10.2931 -79.0563 18.542
lowerback 4.04362 -1.83668 1.11322
upperback 2.95618 -2.47258 1.67311
thorax 0.796811 -1.25888 1.17191
lowerneck -0.420144 -2.15819 -1.50444
upperneck 0.1572 -2.92237 5.97532
head 0.238169 -1.46331 2.10971
rclavicle -1.55052e-014 1.59028e-015
rhumerus -38.7015 4.4437 -87.2122
rradius 46.5052
rwrist -6.10468
rhand -24.5611 2.85011
rfingers 7.12502
rthumb 1.93548 -27.1209
lclavicle -1.55052e-014 1.59028e-015
lhumerus -38.1797 -28.6762 99.7262
lradius 56.7233
lwrist 7.44425
lhand -12.6666 16.2663
lfingers 7.12502
lthumb 13.4146 45.8144
rfemur -32.348 -1.57013 19.2526
rtibia 50.1857
rfoot -17.2539 -3.16593
rtoes 12.7221
lfemur -0.00814937 6.52392 -19.8011
ltibia 29.21
lfoot -15.2247 8.12019
ltoes 1.62121
1030
root -10.7644 16.8343 -7.57729 -9.50014 -78.9251 17.6807
lowerback 4.05017 -1.8016 1.31087
upperback 2.93385 -2.41979 1.72382
thorax 0.763825 -1.23024 1.11252
lowerneck -0.155216 -2.17713 -1.53551
upperneck -0.518473 -2.9173 6.14051
head -0.0140201 -1.47656 2.17744
rclavicle 1.63003e-014 1.27222e-014
rhumerus -38.6735 4.35129 -87.2203
rradius 46.5755
rwrist -6.05633
rhand -24.6441 2.85943
rfingers 7.12502
rthumb 1.85528 -27.1122
lclavicle 1.63003e-014 1.27222e-014
lhumerus -38.4474 -28.2572 99.5945
lradius 56.0406
lwrist 7.41154
lhand -12.9613 16.2952
lfingers 7.12502
lthumb 13.1305 45.8618
rfemur -32.0098 -1.75551 19.4213
rtibia 50.2901
rfoot -17.0844 -3.05893
rtoes 12.1796
lfemur -0.507663 6.39831 -19.7003
ltibia 29.1933
lfoot -15.4254 7.99965
ltoes 1.66301
1031
root -10.8499 16.8457 -7.5777 -8.67648 -78.8049 16.7787
lowerback 4.0494 -1.75641 1.50748
upperback 2.91382 -2.35385 1.7772
thorax 0.737642 -1.19519 1.05567
lowerneck 0.109672 -2.1917 -1.56991
upperneck -1.1933 -2.90559 6.31475
head -0.266643 -1.48755 2.25076
rclavicle 1.2921e-014 -2.54444e-014
rhumerus -38.6701 4.26163 -87.2279
rradius 46.6702
rwrist -6.05052
rhand -24.716 2.88707
rfingers 7.12502
rthumb 1.78587 -27.0852
lclavicle 1.2921e-014 -2.54444e-014
lhumerus -38.7359 -27.8724 99.4627
lradius 55.4348
lwrist 7.38829
lhand -13.2664 16.3118
lfingers 7.12502
lthumb 12.8364 45.8971
rfemur -31.6609 -1.93869 19.6119
rtibia 50.3871
rfoot -16.9037 -2.95193
rtoes 11.7795
lfemur -1.00225 6.29286 -19.5827
ltibia 29.159
lfoot -15.6526 7.91214
ltoes 1.74618
1032
root -10.9353 16.8567 -7.57804 -7.88049 -78.6982 15.8937
lowerback 4.04948 -1.69898 1.69569
upperback 2.89553 -2.27191 1.82879
thorax 0.713279 -1.15232 1.00107
lowerneck 0.378764 -2.20058 -1.60545
upperneck -1.87903 -2.8848 6.49772
head -0.524832 -1.4954 2.32938
rclavicle -6.04305e-014 5.56597e-015
rhumerus -38.6921 4.1781 -87.2387
rradius 46.7949
rwrist -6.08689
rhand -24.7732 2.90846
rfingers 7.12502
rthumb 1.7306 -27.0643
lclavicle -6.04305e-014 5.56597e-015
lhumerus -39.0458 -27.5231 99.3287
lradius 54.9092
lwrist 7.3693
lhand -13.5381 16.3272
lfingers 7.12502
lthumb 12.5744 45.9288
rfemur -31.3154 -2.12885 19.813
rtibia 50.4933
rfoot -16.7025 -2.83697
rtoes 11.523
lfemur -1.48741 6.20589 -19.4626
ltibia 29.1057
lfoot -15.8987 7.86154
ltoes 1.83814
1033
root -11.0201 16.8679 -7.57819 -7.15897 -78.6073 15.0804
lowerback 4.04858 -1.62962 1.86558
upperback 2.87662 -2.17456 1.87574
thorax 0.689654 -1.102 0.951365
lowerneck 0.656678 -2.20349 -1.64466
upperneck -2.58429 -2.85398 6.69096
head -0.792685 -1.49996 2.41454
rclavicle -1.92821e-014 3.97569e-015
rhumerus -38.7336 4.11361 -87.2568
rradius 46.9419
rwrist -6.16983
rhand -24.8349 2.94521
rfingers 7.12502
rthumb 1.67098 -27.028
lclavicle -1.92821e-014 3.97569e-015
lhumerus -39.3788 -27.2042 99.1906
lradius 54.4668
lwrist 7.35377
lhand -13.7698 16.3437
lfingers 7.12502
lthumb 12.3511 45.9589
rfemur -30.992 -2.32554 20.0117
rtibia 50.6214
rfoot -16.4745 -2.72142
rtoes 11.3993
lfemur -1.96863 6.13085 -19.356
ltibia 29.0344
lfoot -16.1686 7.83447
ltoes 1.93008
1034
root -11.1044 16.8793 -7.57825 -6.54215 -78.5389 14.3675
lowerback 4.04985 -1.54716 2.00944
upperback 2.85887 -2.0604 1.91647
thorax 0.667054 -1.04362 0.90923
lowerneck 0.938595 -2.20241 -1.68197
upperneck -3.30853 -2.81566 6.88783
head -1.06986 -1.50246 2.50304
rclavicle -5.1684e-015 -3.97569e-015
rhumerus -38.7899 4.0702 -87.2843
rradius 47.1073
rwrist -6.29349
rhand -24.8969 2.9727
rfingers 7.12502
rthumb 1.61117 -27.001
lclavicle -5.1684e-015 -3.97569e-015
lhumerus -39.7348 -26.9083 99.046
lradius 54.1141
lwrist 7.3369
lhand -13.9547 16.3815
lfingers 7.12502
lthumb 12.1727 46.0074
rfemur -30.6964 -2.52618 20.2015
rtibia 50.7813
rfoot -16.21 -2.62112
rtoes 11.2683
lfemur -2.44145 6.0735 -19.2691
ltibia 28.9467
lfoot -16.44 7.82447
ltoes 2.01266
1035
root -11.1874 16.8912 -7.57726 -6.06474 -78.4883 13.7978
lowerback 4.05719 -1.45561 2.13113
upperback 2.83728 -1.93418 1.94589
thorax 0.637827 -0.979413 0.867619
lowerneck 1.22359 -2.19465 -1.71803
upperneck -4.04449 -2.76659 7.08448
head -1.35461 -1.5011 2.5936
rclavicle 1.0138e-014 -1.59028e-015
rhumerus -38.8571 4.05667 -87.3227
rradius 47.2833
rwrist -6.44761
rhand -24.9598 2.99986
rfingers 7.12502
rthumb 1.5504 -26.9743
lclavicle 1.0138e-014 -1.59028e-015
lhumerus -40.1162 -26.6255 98.8936
lradius 53.8508
lwrist 7.32118
lhand -14.081 16.4264
lfingers 7.12502
lthumb 12.051 46.0594
rfemur -30.4391 -2.74091 20.3641
rtibia 50.9769
rfoot -15.8979 -2.52747
rtoes 11.1205
lfemur -2.91568 6.02542 -19.2207
ltibia 28.8453
lfoot -16.7009 7.82359
ltoes 2.09307
1036
root -11.2689 16.9039 -7.57513 -5.74533 -78.4564 13.3935
lowerback 4.06904 -1.35555 2.2268
upperback 2.81058 -1.79673 1.96271
thorax 0.601588 -0.909818 0.827324
lowerneck 1.50274 -2.18273 -1.75393
upperneck -4.77821 -2.71093 7.27722
head -1.64113 -1.49739 2.68472
rclavicle 9.34288e-015 -1.82882e-014
rhumerus -38.9318 4.07115 -87.3709
rradius 47.4621
rwrist -6.61054
rhand -25.0223 3.01266
rfingers 7.12502
rthumb 1.49004 -26.9619
lclavicle 9.34288e-015 -1.82882e-014
lhumerus -40.5255 -26.3538 98.7351
lradius 53.6786
lwrist 7.31523
lhand -14.1496 16.4948
lfingers 7.12502
lthumb 11.9849 46.1317
rfemur -30.2236 -2.96579 20.4895
rtibia 51.2075
rfoot -15.5223 -2.45552
rtoes 10.8891
lfemur -3.39718 5.99033 -19.218
ltibia 28.7352
lfoot -16.9369 7.82189
ltoes 2.12972
1037
root -11.3492 16.9169 -7.57159 -5.58528 -78.4387 13.1531
lowerback 4.08404 -1.24979 2.29914
upperback 2.78038 -1.65183 1.9668
thorax 0.560615 -0.836668 0.786751
lowerneck 1.76836 -2.16749 -1.78972
upperneck -5.49696 -2.65076 7.45982
head -1.924 -1.49173 2.77374
rclavicle -3.47873e-014 0
rhumerus -39.0108 4.10831 -87.4252
rradius 47.639
rwrist -6.75273
rhand -25.0807 3.00957
rfingers 7.12502
rthumb 1.43359 -26.9654
lclavicle -3.47873e-014 0
lhumerus -40.9635 -26.0906 98.5723
lradius 53.5931
lwrist 7.33125
lhand -14.1645 16.5846
lfingers 7.12502
lthumb 11.9704 46.2224
rfemur -30.038 -3.19967 20.5718
rtibia 51.468
rfoot -15.1051 -2.37515
rtoes 10.6232
lfemur -3.88372 5.96848 -19.2627
ltibia 28.6213
lfoot -17.1425 7.81536
ltoes 2.15445
